<?xml version="1.0" encoding="UTF-8"?>
<svg id="Capa_1" xmlns="http://www.w3.org/2000/svg" version="1.1" viewBox="0 0 500 500">
  <!-- Generator: Adobe Illustrator 30.4.0, SVG Export Plug-In . SVG Version: 2.1.4 Build 226)  -->
  <defs>
    <style>
      .st0, .st1, .st2, .st3 {
        fill-rule: evenodd;
      }

      .st0, .st4 {
        fill: #fff;
      }

      .st1, .st5 {
        fill: #7e22ce;
      }

      .st2, .st6 {
        fill: #121212;
      }

      .st7 {
        fill: #f45201;
      }

      .st3 {
        fill: #d4d4d4;
      }

      .st8 {
        display: none;
      }
    </style>
  </defs>
  <g>
    <path class="st5" d="M458.7,388.13v-129.88c0-16.45-6.54-32.2-18.23-43.73l-148.42-146.43c-23.37-23.07-60.73-23.07-84.11,0L59.53,214.52c-11.7,11.54-18.23,27.28-18.23,43.73v129.88c0,33.71,26.95,61.08,60.33,61.08h296.83c33.29,0,60.24-27.28,60.24-61.08Z"/>
    <path class="st0" d="M128.15,305.89v-38.16h-27.54v103.01h27.34v-38.47c.2-8.45,6.05-12.48,11.39-12.48s9.58,2.52,9.89,10.78v40.28h27.04v-40.38c0-24.47-13.92-34.03-28.65-34.03-8.67,0-14.32,2.82-19.47,9.47ZM270.9,298.13h-25.52l-1.52,7.75c-3.83-5.94-10.99-9.46-21.38-9.46-21.18,0-35.41,16.51-35.41,38.06s12.01,36.45,33.39,37.76c8.17.41,17.85-2.12,24.11-9.16l1.2,7.85h25.12v-72.8ZM228.84,350.39c-8.18,0-14.63-5.74-14.63-15.91s6.56-16.01,14.63-16.11c9.58,0,15.03,6.34,15.03,16.11,0,8.56-5.85,15.91-15.03,15.91ZM314.07,304.27c4.03-4.84,10.89-7.85,20.27-7.85,21.29,0,35.41,15.8,35.41,38.06s-12.01,36.45-33.39,37.76c-8.18.41-17.85-2.12-24.11-9.16l-1.2,7.85h-24.21v-103.2h27.13v36.55h.1ZM313.47,335.28c0,7.66,5.45,15.21,14.63,15.21,8.17,0,14.63-5.74,14.63-15.91s-6.46-16.12-14.63-16.12c-9.58,0-14.63,7.96-14.63,16.82ZM409.2,299.24v71.69h-27.34v-71.69h27.34Z"/>
    <path class="st7" d="M395.98,132.4c11.26,0,20.38-9.11,20.38-20.34s-9.12-20.34-20.38-20.34-20.38,9.11-20.38,20.34,9.13,20.34,20.38,20.34Z"/>
  </g>
  <g class="st8">
    <path class="st4" d="M458.7,388.68v-130.4c0-16.51-6.54-32.32-18.23-43.89l-148.42-147.01c-23.38-23.16-60.73-23.16-84.11,0L59.53,214.38c-11.7,11.57-18.23,27.39-18.23,43.89v130.4c0,33.83,26.95,61.32,60.33,61.32h296.83c33.29,0,60.24-27.39,60.24-61.32Z"/>
    <path class="st1" d="M125.84,306.81v-38.62h-27.62v104.25h27.43v-38.92c.2-8.57,6.07-12.64,11.43-12.64s9.61,2.54,9.91,10.9v40.76h27.12v-40.87c0-24.76-13.96-34.44-28.73-34.44-8.71,0-14.37,2.85-19.53,9.57ZM268.97,298.37h-25.99l-1.55,7.75c-3.9-5.94-11.19-9.47-21.78-9.47-21.57,0-36.06,16.52-36.06,38.08s12.23,36.47,34.01,37.78c8.32.4,18.19-2.12,24.55-9.17l1.23,7.86h25.59v-72.83ZM226.13,350.64c-8.33,0-14.9-5.74-14.9-15.91s6.68-16.02,14.9-16.12c9.76,0,15.3,6.35,15.3,16.12,0,8.56-5.96,15.91-15.3,15.91ZM306.5,304.66c4.16-4.82,11.22-7.84,20.88-7.84,21.91,0,36.46,15.78,36.46,37.98s-12.36,36.38-34.38,37.69c-8.41.4-18.39-2.12-24.83-9.14l-1.24,7.84h-24.93v-103h27.94v36.48h.1ZM305.89,335.62c0,7.64,5.61,15.18,15.06,15.18,8.41,0,15.06-5.73,15.06-15.88s-6.65-16.08-15.06-16.08c-9.87,0-15.06,7.94-15.06,16.78ZM401.78,296.65v75.89h-28.46v-75.89h28.46Z"/>
    <path class="st7" d="M389.65,131.61c11.05,0,20.01-9.11,20.01-20.34s-8.96-20.34-20.01-20.34-20.02,9.11-20.02,20.34,8.96,20.34,20.02,20.34Z"/>
  </g>
  <g class="st8">
    <path class="st2" d="M458.7,388.13v-129.88c0-16.45-6.54-32.2-18.23-43.73l-148.42-146.43c-23.38-23.07-60.73-23.07-84.11,0L59.53,214.52c-11.7,11.54-18.23,27.28-18.23,43.73v129.88c0,33.71,26.95,61.08,60.33,61.08h296.83c33.29,0,60.24-27.28,60.24-61.08ZM126.6,268.97v38.01c5.06-6.62,10.61-9.43,19.12-9.43,14.47,0,28.14,9.53,28.14,33.9v40.21h-26.55v-40.12c-.29-8.22-4.35-10.73-9.7-10.73s-11,4.01-11.19,12.44v38.32h-26.86v-102.61h27.05ZM266.79,299.14h-25.06l-1.49,7.72c-3.77-5.92-10.8-9.43-21-9.43-20.8,0-34.78,16.45-34.78,37.91s11.79,36.31,32.8,37.61c8.03.41,17.54-2.11,23.68-9.13l1.2,7.83h24.66v-72.52ZM225.48,351.19c-8.03,0-14.36-5.72-14.36-15.85s6.44-15.95,14.36-16.04c9.41,0,14.76,6.32,14.76,16.04,0,8.53-5.74,15.85-14.76,15.85ZM309.2,305.38c3.97-4.82,10.7-7.83,19.91-7.83,20.91,0,34.78,15.75,34.78,37.92s-11.79,36.3-32.8,37.6c-8.03.41-17.54-2.11-23.68-9.13l-1.2,7.83h-23.77v-102.81h26.65v36.41h.1ZM308.6,336.27c0,7.63,5.35,15.15,14.36,15.15,8.03,0,14.37-5.72,14.37-15.85s-6.35-16.04-14.37-16.04c-9.41,0-14.36,7.92-14.36,16.74ZM402.63,297.43v71.41h-26.85v-71.41h26.85Z"/>
    <path class="st6" d="M389.65,132.07c11.05,0,20.01-9.07,20.01-20.26s-8.96-20.25-20.01-20.25-20.02,9.07-20.02,20.25,8.96,20.26,20.02,20.26Z"/>
  </g>
  <g class="st8">
    <path class="st0" d="M458.7,388.13v-129.88c0-16.45-6.54-32.2-18.23-43.73l-148.42-146.43c-23.38-23.07-60.73-23.07-84.11,0L59.53,214.52c-11.7,11.54-18.23,27.28-18.23,43.73v129.88c0,33.71,26.95,61.08,60.33,61.08h296.83c33.29,0,60.24-27.28,60.24-61.08ZM126.6,268.97v38.01c5.06-6.62,10.61-9.43,19.12-9.43,14.47,0,28.14,9.53,28.14,33.9v40.21h-26.55v-40.12c-.29-8.22-4.35-10.73-9.7-10.73s-11,4.01-11.19,12.44v38.32h-26.86v-102.61h27.05ZM266.79,299.14h-25.06l-1.49,7.72c-3.77-5.92-10.8-9.43-21-9.43-20.8,0-34.78,16.45-34.78,37.91s11.79,36.31,32.8,37.61c8.03.41,17.54-2.11,23.68-9.13l1.2,7.83h24.66v-72.52ZM225.48,351.19c-8.03,0-14.36-5.72-14.36-15.85s6.44-15.95,14.36-16.04c9.41,0,14.76,6.32,14.76,16.04,0,8.53-5.74,15.85-14.76,15.85ZM309.2,305.38c3.97-4.82,10.7-7.83,19.91-7.83,20.91,0,34.78,15.75,34.78,37.92s-11.79,36.3-32.8,37.6c-8.03.41-17.54-2.11-23.68-9.13l-1.2,7.83h-23.77v-102.81h26.65v36.41h.1ZM308.6,336.27c0,7.63,5.35,15.15,14.36,15.15,8.03,0,14.37-5.72,14.37-15.85s-6.35-16.04-14.37-16.04c-9.41,0-14.36,7.92-14.36,16.74ZM402.63,297.43v71.41h-26.85v-71.41h26.85Z"/>
    <path class="st4" d="M389.65,132.07c11.05,0,20.01-9.07,20.01-20.26s-8.96-20.25-20.01-20.25-20.02,9.07-20.02,20.25,8.96,20.26,20.02,20.26Z"/>
  </g>
  <g class="st8">
    <path class="st3" d="M458.7,388.13v-129.88c0-16.45-6.54-32.2-18.23-43.73l-148.42-146.43c-23.37-23.07-60.73-23.07-84.11,0L59.53,214.52c-11.7,11.54-18.23,27.28-18.23,43.73v129.88c0,33.71,26.95,61.08,60.33,61.08h296.83c33.29,0,60.24-27.28,60.24-61.08ZM126.6,268.97v38.01c5.06-6.62,10.61-9.43,19.12-9.43,14.47,0,28.14,9.53,28.14,33.9v40.21h-26.55v-40.12c-.29-8.22-4.35-10.73-9.7-10.73s-11,4.01-11.19,12.44v38.32h-26.86v-102.61h27.05ZM266.79,299.14h-25.06l-1.49,7.72c-3.77-5.92-10.8-9.43-21-9.43-20.8,0-34.78,16.45-34.78,37.91s11.79,36.31,32.79,37.61c8.03.41,17.54-2.11,23.68-9.13l1.2,7.83h24.67v-72.52ZM225.48,351.19c-8.03,0-14.36-5.72-14.36-15.85s6.44-15.95,14.36-16.04c9.41,0,14.76,6.32,14.76,16.04,0,8.53-5.74,15.85-14.76,15.85ZM309.2,305.38c3.97-4.82,10.7-7.83,19.91-7.83,20.91,0,34.78,15.75,34.78,37.92s-11.79,36.3-32.8,37.6c-8.03.41-17.54-2.11-23.68-9.13l-1.2,7.83h-23.77v-102.81h26.65v36.41h.1ZM308.6,336.27c0,7.63,5.35,15.15,14.36,15.15,8.03,0,14.37-5.72,14.37-15.85s-6.35-16.04-14.37-16.04c-9.41,0-14.36,7.92-14.36,16.74ZM402.63,297.43v71.41h-26.85v-71.41h26.85Z"/>
  </g>
</svg>