<?xml version="1.0" encoding="UTF-8"?>
<svg xmlns="http://www.w3.org/2000/svg" version="1.1" viewBox="0 0 500 500">
  <!-- Generator: Adobe Illustrator 30.4.0, SVG Export Plug-In . SVG Version: 2.1.4 Build 226)  -->
  <defs>
    <style>
      .st0, .st1, .st2, .st3 {
        fill-rule: evenodd;
      }

      .st0, .st4 {
        fill: #fff;
      }

      .st1, .st5 {
        fill: #7e22ce;
      }

      .st2, .st6 {
        fill: #121212;
      }

      .st7 {
        fill: #f45201;
      }

      .st8, .st3 {
        fill: #d4d4d4;
      }

      .st9 {
        fill: #9333ea;
      }

      .st10 {
        display: none;
      }
    </style>
  </defs>
  <g id="Capa_1" class="st10">
    <g>
      <path class="st5" d="M458.7,388.13v-129.88c0-16.45-6.54-32.2-18.23-43.73l-148.42-146.43c-23.37-23.07-60.73-23.07-84.11,0L59.53,214.52c-11.7,11.54-18.23,27.28-18.23,43.73v129.88c0,33.71,26.95,61.08,60.33,61.08h296.83c33.29,0,60.24-27.28,60.24-61.08Z"/>
      <path class="st0" d="M128.15,305.89v-38.16h-27.54v103.01h27.34v-38.47c.2-8.45,6.05-12.48,11.39-12.48s9.58,2.52,9.89,10.78v40.28h27.04v-40.38c0-24.47-13.92-34.03-28.65-34.03-8.67,0-14.32,2.82-19.47,9.47ZM270.9,298.13h-25.52l-1.52,7.75c-3.83-5.94-10.99-9.46-21.38-9.46-21.18,0-35.41,16.51-35.41,38.06s12.01,36.45,33.39,37.76c8.17.41,17.85-2.12,24.11-9.16l1.2,7.85h25.12v-72.8ZM228.84,350.39c-8.18,0-14.63-5.74-14.63-15.91s6.56-16.01,14.63-16.11c9.58,0,15.03,6.34,15.03,16.11,0,8.56-5.85,15.91-15.03,15.91ZM314.07,304.27c4.03-4.84,10.89-7.85,20.27-7.85,21.29,0,35.41,15.8,35.41,38.06s-12.01,36.45-33.39,37.76c-8.18.41-17.85-2.12-24.11-9.16l-1.2,7.85h-24.21v-103.2h27.13v36.55h.1ZM313.47,335.28c0,7.66,5.45,15.21,14.63,15.21,8.17,0,14.63-5.74,14.63-15.91s-6.46-16.12-14.63-16.12c-9.58,0-14.63,7.96-14.63,16.82ZM409.2,299.24v71.69h-27.34v-71.69h27.34Z"/>
      <path class="st7" d="M395.98,132.4c11.26,0,20.38-9.11,20.38-20.34s-9.12-20.34-20.38-20.34-20.38,9.11-20.38,20.34,9.13,20.34,20.38,20.34Z"/>
    </g>
    <g>
      <path class="st4" d="M458.7,388.68v-130.4c0-16.51-6.54-32.32-18.23-43.89l-148.42-147.01c-23.38-23.16-60.73-23.16-84.11,0L59.53,214.38c-11.7,11.57-18.23,27.39-18.23,43.89v130.4c0,33.83,26.95,61.32,60.33,61.32h296.83c33.29,0,60.24-27.39,60.24-61.32Z"/>
      <path class="st1" d="M125.84,306.81v-38.62h-27.62v104.25h27.43v-38.92c.2-8.57,6.07-12.64,11.43-12.64s9.61,2.54,9.91,10.9v40.76h27.12v-40.87c0-24.76-13.96-34.44-28.73-34.44-8.71,0-14.37,2.85-19.53,9.57ZM268.97,298.37h-25.99l-1.55,7.75c-3.9-5.94-11.19-9.47-21.78-9.47-21.57,0-36.06,16.52-36.06,38.08s12.23,36.47,34.01,37.78c8.32.4,18.19-2.12,24.55-9.17l1.23,7.86h25.59v-72.83ZM226.13,350.64c-8.33,0-14.9-5.74-14.9-15.91s6.68-16.02,14.9-16.12c9.76,0,15.3,6.35,15.3,16.12,0,8.56-5.96,15.91-15.3,15.91ZM306.5,304.66c4.16-4.82,11.22-7.84,20.88-7.84,21.91,0,36.46,15.78,36.46,37.98s-12.36,36.38-34.38,37.69c-8.41.4-18.39-2.12-24.83-9.14l-1.24,7.84h-24.93v-103h27.94v36.48h.1ZM305.89,335.62c0,7.64,5.61,15.18,15.06,15.18,8.41,0,15.06-5.73,15.06-15.88s-6.65-16.08-15.06-16.08c-9.87,0-15.06,7.94-15.06,16.78ZM401.78,296.65v75.89h-28.46v-75.89h28.46Z"/>
      <path class="st7" d="M389.65,131.61c11.05,0,20.01-9.11,20.01-20.34s-8.96-20.34-20.01-20.34-20.02,9.11-20.02,20.34,8.96,20.34,20.02,20.34Z"/>
    </g>
    <g>
      <path class="st2" d="M458.7,388.13v-129.88c0-16.45-6.54-32.2-18.23-43.73l-148.42-146.43c-23.38-23.07-60.73-23.07-84.11,0L59.53,214.52c-11.7,11.54-18.23,27.28-18.23,43.73v129.88c0,33.71,26.95,61.08,60.33,61.08h296.83c33.29,0,60.24-27.28,60.24-61.08ZM126.6,268.97v38.01c5.06-6.62,10.61-9.43,19.12-9.43,14.47,0,28.14,9.53,28.14,33.9v40.21h-26.55v-40.12c-.29-8.22-4.35-10.73-9.7-10.73s-11,4.01-11.19,12.44v38.32h-26.86v-102.61h27.05ZM266.79,299.14h-25.06l-1.49,7.72c-3.77-5.92-10.8-9.43-21-9.43-20.8,0-34.78,16.45-34.78,37.91s11.79,36.31,32.8,37.61c8.03.41,17.54-2.11,23.68-9.13l1.2,7.83h24.66v-72.52ZM225.48,351.19c-8.03,0-14.36-5.72-14.36-15.85s6.44-15.95,14.36-16.04c9.41,0,14.76,6.32,14.76,16.04,0,8.53-5.74,15.85-14.76,15.85ZM309.2,305.38c3.97-4.82,10.7-7.83,19.91-7.83,20.91,0,34.78,15.75,34.78,37.92s-11.79,36.3-32.8,37.6c-8.03.41-17.54-2.11-23.68-9.13l-1.2,7.83h-23.77v-102.81h26.65v36.41h.1ZM308.6,336.27c0,7.63,5.35,15.15,14.36,15.15,8.03,0,14.37-5.72,14.37-15.85s-6.35-16.04-14.37-16.04c-9.41,0-14.36,7.92-14.36,16.74ZM402.63,297.43v71.41h-26.85v-71.41h26.85Z"/>
      <path class="st6" d="M389.65,132.07c11.05,0,20.01-9.07,20.01-20.26s-8.96-20.25-20.01-20.25-20.02,9.07-20.02,20.25,8.96,20.26,20.02,20.26Z"/>
    </g>
    <g>
      <path class="st0" d="M458.7,388.13v-129.88c0-16.45-6.54-32.2-18.23-43.73l-148.42-146.43c-23.38-23.07-60.73-23.07-84.11,0L59.53,214.52c-11.7,11.54-18.23,27.28-18.23,43.73v129.88c0,33.71,26.95,61.08,60.33,61.08h296.83c33.29,0,60.24-27.28,60.24-61.08ZM126.6,268.97v38.01c5.06-6.62,10.61-9.43,19.12-9.43,14.47,0,28.14,9.53,28.14,33.9v40.21h-26.55v-40.12c-.29-8.22-4.35-10.73-9.7-10.73s-11,4.01-11.19,12.44v38.32h-26.86v-102.61h27.05ZM266.79,299.14h-25.06l-1.49,7.72c-3.77-5.92-10.8-9.43-21-9.43-20.8,0-34.78,16.45-34.78,37.91s11.79,36.31,32.8,37.61c8.03.41,17.54-2.11,23.68-9.13l1.2,7.83h24.66v-72.52ZM225.48,351.19c-8.03,0-14.36-5.72-14.36-15.85s6.44-15.95,14.36-16.04c9.41,0,14.76,6.32,14.76,16.04,0,8.53-5.74,15.85-14.76,15.85ZM309.2,305.38c3.97-4.82,10.7-7.83,19.91-7.83,20.91,0,34.78,15.75,34.78,37.92s-11.79,36.3-32.8,37.6c-8.03.41-17.54-2.11-23.68-9.13l-1.2,7.83h-23.77v-102.81h26.65v36.41h.1ZM308.6,336.27c0,7.63,5.35,15.15,14.36,15.15,8.03,0,14.37-5.72,14.37-15.85s-6.35-16.04-14.37-16.04c-9.41,0-14.36,7.92-14.36,16.74ZM402.63,297.43v71.41h-26.85v-71.41h26.85Z"/>
      <path class="st4" d="M389.65,132.07c11.05,0,20.01-9.07,20.01-20.26s-8.96-20.25-20.01-20.25-20.02,9.07-20.02,20.25,8.96,20.26,20.02,20.26Z"/>
    </g>
    <path class="st3" d="M458.7,388.13v-129.88c0-16.45-6.54-32.2-18.23-43.73l-148.42-146.43c-23.37-23.07-60.73-23.07-84.11,0L59.53,214.52c-11.7,11.54-18.23,27.28-18.23,43.73v129.88c0,33.71,26.95,61.08,60.33,61.08h296.83c33.29,0,60.24-27.28,60.24-61.08ZM126.6,268.97v38.01c5.06-6.62,10.61-9.43,19.12-9.43,14.47,0,28.14,9.53,28.14,33.9v40.21h-26.55v-40.12c-.29-8.22-4.35-10.73-9.7-10.73s-11,4.01-11.19,12.44v38.32h-26.86v-102.61h27.05ZM266.79,299.14h-25.06l-1.49,7.72c-3.77-5.92-10.8-9.43-21-9.43-20.8,0-34.78,16.45-34.78,37.91s11.79,36.31,32.79,37.61c8.03.41,17.54-2.11,23.68-9.13l1.2,7.83h24.67v-72.52ZM225.48,351.19c-8.03,0-14.36-5.72-14.36-15.85s6.44-15.95,14.36-16.04c9.41,0,14.76,6.32,14.76,16.04,0,8.53-5.74,15.85-14.76,15.85ZM309.2,305.38c3.97-4.82,10.7-7.83,19.91-7.83,20.91,0,34.78,15.75,34.78,37.92s-11.79,36.3-32.8,37.6c-8.03.41-17.54-2.11-23.68-9.13l-1.2,7.83h-23.77v-102.81h26.65v36.41h.1ZM308.6,336.27c0,7.63,5.35,15.15,14.36,15.15,8.03,0,14.37-5.72,14.37-15.85s-6.35-16.04-14.37-16.04c-9.41,0-14.36,7.92-14.36,16.74ZM402.63,297.43v71.41h-26.85v-71.41h26.85Z"/>
  </g>
  <g id="Capa_2" class="st10">
    <g class="st10">
      <path class="st7" d="M392.74,131.14c11.3,0,20.46-9.14,20.46-20.42s-9.16-20.42-20.46-20.42-20.46,9.14-20.46,20.42,9.16,20.42,20.46,20.42Z"/>
      <path class="st5" d="M463.32,388.71v-130.44c0-8.18-1.65-16.28-4.85-23.82-3.19-7.54-7.88-14.36-13.77-20.08l-151.7-146.98c-11.5-11.15-26.94-17.39-43.01-17.39s-31.5,6.24-43.01,17.39L55.29,214.37c-5.9,5.71-10.57,12.53-13.77,20.08s-4.85,15.64-4.85,23.82v130.44c0,16.26,6.5,31.85,18.06,43.34,11.55,11.5,27.23,17.95,43.58,17.95h303.39c16.35,0,32.03-6.46,43.58-17.95,11.56-11.49,18.06-27.09,18.06-43.34"/>
      <path class="st4" d="M125.66,267.18v37.38c5.05-6.5,10.51-9.22,19.01-9.22,14.4,0,27.93,9.37,27.93,33.34v39.57h-26.34v-39.42c-.3-8.09-4.33-10.54-9.65-10.54s-10.95,3.89-11.1,12.28v37.69h-26.63v-101.08h26.77Z"/>
      <path class="st4" d="M239.98,296.92h24.9v71.33h-24.47l-1.15-7.65c-6.05,6.93-15.55,9.38-23.47,8.94-20.89-1.3-32.54-16.17-32.54-36.96s13.82-37.26,34.55-37.26c10.08,0,17.13,3.46,20.88,9.23l1.3-7.64ZM209.6,332.59c0,9.96,6.33,15.59,14.25,15.59,8.93,0,14.69-7.21,14.69-15.59,0-9.53-5.32-15.74-14.69-15.74-7.91,0-14.25,5.78-14.25,15.74Z"/>
      <path class="st4" d="M306.95,302.99c3.88-4.77,10.66-7.65,19.72-7.65,20.73,0,34.56,15.45,34.56,37.25s-11.67,35.67-32.54,36.96c-7.91.44-17.43-2.02-23.47-8.95l-1.18,7.66h-23.61v-101.08h26.51v35.81ZM306.37,333.31c0,7.51,5.33,14.88,14.26,14.88,7.92,0,14.25-5.64,14.25-15.6s-6.32-15.74-14.25-15.74c-9.36,0-14.26,7.8-14.26,16.47Z"/>
      <path class="st4" d="M399.65,298.08h-26.64v70.18h26.64v-70.18Z"/>
      <path class="st4" d="M185.44,259.1v19.15c-4.59,1.71-9.46,2.61-14.36,2.63-9.57,0-16.84-2.7-21.81-8.1-4.97-5.41-7.46-13.52-7.46-23.11v-22.93h-16.15v-18.59h16.15v-16.08l25.24-8.1v24.17h17v18.59h-17v22.93c0,3.35.99,6.5,2.99,8.23,2,1.72,4.49,2.58,7.46,2.58,1.66,0,5.17-.81,7.94-1.37Z"/>
      <path class="st4" d="M264.89,208.14v71.01h-24.7v-9.5c-4.54,7.1-11.28,10.64-20.18,10.64s-15.73-2.51-20.14-7.54c-4.41-5.04-6.62-12.72-6.62-23.07v-41.53h25.23v42.22c0,6.98,3.02,10.48,9.06,10.49,3.53,0,6.39-1.26,8.57-3.78,2.18-2.51,3.28-5.87,3.28-10.06v-38.85l25.5-.02Z"/>
    </g>
    <g class="st10">
      <path class="st7" d="M392.74,131.14c11.3,0,20.46-9.14,20.46-20.42s-9.16-20.42-20.46-20.42-20.46,9.14-20.46,20.42,9.16,20.42,20.46,20.42Z"/>
      <path class="st4" d="M463.32,388.71v-130.44c0-8.18-1.65-16.28-4.85-23.82-3.19-7.54-7.88-14.36-13.77-20.08l-151.7-146.98c-11.5-11.15-26.94-17.39-43.01-17.39s-31.5,6.24-43.01,17.39L55.29,214.37c-5.9,5.71-10.57,12.53-13.77,20.08s-4.85,15.64-4.85,23.82v130.44c0,16.26,6.5,31.85,18.06,43.34,11.55,11.5,27.23,17.95,43.58,17.95h303.39c16.35,0,32.03-6.46,43.58-17.95,11.56-11.49,18.06-27.09,18.06-43.34"/>
      <path class="st5" d="M125.66,267.18v37.38c5.05-6.5,10.51-9.22,19.01-9.22,14.4,0,27.93,9.37,27.93,33.34v39.57h-26.34v-39.42c-.3-8.09-4.33-10.54-9.65-10.54s-10.95,3.89-11.1,12.28v37.69h-26.63v-101.08h26.77Z"/>
      <path class="st5" d="M239.98,296.92h24.9v71.33h-24.47l-1.15-7.65c-6.05,6.93-15.55,9.38-23.47,8.94-20.89-1.3-32.54-16.17-32.54-36.96s13.82-37.26,34.55-37.26c10.08,0,17.13,3.46,20.88,9.23l1.3-7.64ZM209.6,332.59c0,9.96,6.33,15.59,14.25,15.59,8.93,0,14.69-7.21,14.69-15.59,0-9.53-5.32-15.74-14.69-15.74-7.91,0-14.25,5.78-14.25,15.74Z"/>
      <path class="st5" d="M306.95,302.99c3.88-4.77,10.66-7.65,19.72-7.65,20.73,0,34.56,15.45,34.56,37.25s-11.67,35.67-32.54,36.96c-7.91.44-17.43-2.02-23.47-8.95l-1.18,7.66h-23.61v-101.08h26.51v35.81ZM306.37,333.31c0,7.51,5.33,14.88,14.26,14.88,7.92,0,14.25-5.64,14.25-15.6s-6.32-15.74-14.25-15.74c-9.36,0-14.26,7.8-14.26,16.47Z"/>
      <path class="st5" d="M399.65,298.08h-26.64v70.18h26.64v-70.18Z"/>
      <path class="st5" d="M185.44,259.1v19.15c-4.59,1.71-9.46,2.61-14.36,2.63-9.57,0-16.84-2.7-21.81-8.1-4.97-5.41-7.46-13.52-7.46-23.11v-22.93h-16.15v-18.59h16.15v-16.08l25.24-8.1v24.17h17v18.59h-17v22.93c0,3.35.99,6.5,2.99,8.23,2,1.72,4.49,2.58,7.46,2.58,1.66,0,5.17-.81,7.94-1.37Z"/>
      <path class="st5" d="M264.89,208.14v71.01h-24.7v-9.5c-4.54,7.1-11.28,10.64-20.18,10.64s-15.73-2.51-20.14-7.54c-4.41-5.04-6.62-12.72-6.62-23.07v-41.53h25.23v42.22c0,6.98,3.02,10.48,9.06,10.49,3.53,0,6.39-1.26,8.57-3.78,2.18-2.51,3.28-5.87,3.28-10.06v-38.85l25.5-.02Z"/>
    </g>
    <g class="st10">
      <path class="st6" d="M392.74,131.14c11.3,0,20.46-9.14,20.46-20.42s-9.16-20.42-20.46-20.42-20.46,9.14-20.46,20.42,9.16,20.42,20.46,20.42Z"/>
      <path class="st6" d="M463.32,388.71v-130.44c0-8.18-1.65-16.28-4.85-23.82-3.19-7.54-7.88-14.36-13.77-20.08l-151.7-146.98c-11.5-11.15-26.94-17.39-43.01-17.39s-31.5,6.24-43.01,17.39L55.29,214.37c-5.9,5.71-10.57,12.53-13.77,20.08s-4.85,15.64-4.85,23.82v130.44c0,16.26,6.5,31.85,18.06,43.34,11.55,11.5,27.23,17.95,43.58,17.95h303.39c16.35,0,32.03-6.46,43.58-17.95,11.56-11.49,18.06-27.09,18.06-43.34"/>
      <path class="st4" d="M125.66,267.18v37.38c5.05-6.5,10.51-9.22,19.01-9.22,14.4,0,27.93,9.37,27.93,33.34v39.57h-26.34v-39.42c-.3-8.09-4.33-10.54-9.65-10.54s-10.95,3.89-11.1,12.28v37.69h-26.63v-101.08h26.77Z"/>
      <path class="st4" d="M239.98,296.92h24.9v71.33h-24.47l-1.15-7.65c-6.05,6.93-15.55,9.38-23.47,8.94-20.89-1.3-32.54-16.17-32.54-36.96s13.82-37.26,34.55-37.26c10.08,0,17.13,3.46,20.88,9.23l1.3-7.64ZM209.6,332.59c0,9.96,6.33,15.59,14.25,15.59,8.93,0,14.69-7.21,14.69-15.59,0-9.53-5.32-15.74-14.69-15.74-7.91,0-14.25,5.78-14.25,15.74Z"/>
      <path class="st4" d="M306.95,302.99c3.88-4.77,10.66-7.65,19.72-7.65,20.73,0,34.56,15.45,34.56,37.25s-11.67,35.67-32.54,36.96c-7.91.44-17.43-2.02-23.47-8.95l-1.18,7.66h-23.61v-101.08h26.51v35.81ZM306.37,333.31c0,7.51,5.33,14.88,14.26,14.88,7.92,0,14.25-5.64,14.25-15.6s-6.32-15.74-14.25-15.74c-9.36,0-14.26,7.8-14.26,16.47Z"/>
      <path class="st4" d="M399.65,298.08h-26.64v70.18h26.64v-70.18Z"/>
      <path class="st4" d="M185.44,259.1v19.15c-4.59,1.71-9.46,2.61-14.36,2.63-9.57,0-16.84-2.7-21.81-8.1-4.97-5.41-7.46-13.52-7.46-23.11v-22.93h-16.15v-18.59h16.15v-16.08l25.24-8.1v24.17h17v18.59h-17v22.93c0,3.35.99,6.5,2.99,8.23,2,1.72,4.49,2.58,7.46,2.58,1.66,0,5.17-.81,7.94-1.37Z"/>
      <path class="st4" d="M264.89,208.14v71.01h-24.7v-9.5c-4.54,7.1-11.28,10.64-20.18,10.64s-15.73-2.51-20.14-7.54c-4.41-5.04-6.62-12.72-6.62-23.07v-41.53h25.23v42.22c0,6.98,3.02,10.48,9.06,10.49,3.53,0,6.39-1.26,8.57-3.78,2.18-2.51,3.28-5.87,3.28-10.06v-38.85l25.5-.02Z"/>
    </g>
    <g class="st10">
      <path class="st4" d="M392.76,131.14c11.24,0,20.48-9.14,20.48-20.42s-9.24-20.42-20.48-20.42-20.48,9.14-20.48,20.42,9.14,20.42,20.48,20.42Z"/>
      <path class="st0" d="M463.33,258.27v130.44h0c0,16.26-6.48,31.85-18.1,43.34-11.52,11.5-27.24,17.95-43.52,17.95H98.29c-16.29,0-32-6.46-43.52-17.95-11.62-11.49-18.1-27.09-18.1-43.34v-130.44c0-8.18,1.62-16.28,4.86-23.82,3.14-7.54,7.9-14.36,13.81-20.08L206.95,67.39c11.52-11.15,26.95-17.39,43.05-17.39s31.52,6.24,43.05,17.39l151.62,146.98c5.91,5.71,10.57,12.53,13.81,20.08,3.24,7.54,4.86,15.64,4.86,23.82ZM185.43,278.26v-19.15c-.48.1-1.05.21-1.52.32h0c-2.48.51-5.05,1.05-6.38,1.05-2.95,0-5.52-.86-7.52-2.58-2-1.72-2.95-4.88-2.95-8.23v-22.93h17.05v-18.59h-17.05v-24.17l-25.24,8.1v16.07h-16.19v18.59h16.19v22.93c0,9.59,2.48,17.7,7.43,23.11,4.95,5.4,12.28,8.1,21.81,8.1,4.95-.02,9.81-.91,14.38-2.63ZM125.62,267.18v37.38c5.05-6.5,10.57-9.22,19.05-9.22,14.38,0,27.91,9.37,27.91,33.34v39.56h-26.29v-39.41c-.29-8.09-4.38-10.54-9.71-10.54s-10.95,3.89-11.05,12.28v37.69h-26.67v-101.08h26.76ZM240,296.92h24.86v71.33h-24.48l-1.14-7.65c-6,6.93-15.52,9.38-23.43,8.94-20.86-1.3-32.57-16.17-32.57-36.96s13.81-37.26,34.57-37.26c10.1,0,17.14,3.46,20.86,9.23l1.33-7.64ZM209.62,332.59c0,9.96,6.29,15.59,14.19,15.59,8.95,0,14.76-7.21,14.76-15.59,0-9.53-5.33-15.74-14.76-15.74-7.9,0-14.19,5.78-14.19,15.74ZM326.67,295.34c-9.05,0-15.81,2.88-19.71,7.64v-35.8h-26.48v101.08h23.62l1.14-7.66c6,6.93,15.52,9.39,23.43,8.95,20.95-1.3,32.57-14.43,32.57-36.96s-13.81-37.25-34.57-37.25ZM320.67,348.19c-8.95,0-14.29-7.36-14.29-14.88,0-8.67,4.86-16.47,14.29-16.47,7.9,0,14.19,5.77,14.19,15.74s-6.29,15.6-14.19,15.6ZM399.62,298.08h-26.57v70.18h26.57v-70.18ZM264.86,208.14v71.01h-24.67v-9.5c-4.57,7.1-11.24,10.64-20.19,10.64s-15.71-2.51-20.1-7.55c-4.48-5.03-6.67-12.71-6.67-23.06v-41.53h25.24v42.22c0,6.98,3.05,10.48,9.05,10.49,3.52,0,6.38-1.27,8.57-3.78,2.19-2.51,3.24-5.87,3.33-10.06v-38.85l25.43-.02Z"/>
    </g>
    <g class="st10">
      <path class="st8" d="M392.76,131.14c11.24,0,20.48-9.14,20.48-20.42s-9.24-20.42-20.48-20.42-20.48,9.14-20.48,20.42,9.14,20.42,20.48,20.42Z"/>
      <path class="st8" d="M463.33,388.71v-130.44c0-8.18-1.62-16.28-4.86-23.82-3.24-7.54-7.9-14.36-13.81-20.08l-151.62-146.98c-11.52-11.15-26.95-17.39-43.05-17.39s-31.52,6.24-43.05,17.39L55.33,214.37c-5.91,5.71-10.67,12.53-13.81,20.08-3.24,7.54-4.86,15.64-4.86,23.82v130.44c0,16.26,6.48,31.85,18.1,43.34,11.52,11.5,27.24,17.95,43.52,17.95h303.43c16.29,0,32-6.46,43.52-17.95,11.62-11.49,18.1-27.09,18.1-43.34"/>
      <path class="st4" d="M125.62,267.18v37.38c5.05-6.5,10.57-9.22,19.05-9.22,14.38,0,27.91,9.37,27.91,33.34v39.57h-26.29v-39.42c-.29-8.09-4.38-10.54-9.71-10.54s-10.95,3.89-11.05,12.28v37.69h-26.67v-101.08h26.76Z"/>
      <path class="st4" d="M240,296.92h24.86v71.33h-24.48l-1.14-7.65c-6,6.93-15.52,9.38-23.43,8.94-20.86-1.3-32.57-16.17-32.57-36.96s13.81-37.26,34.57-37.26c10.1,0,17.14,3.46,20.86,9.23l1.33-7.64ZM209.62,332.59c0,9.96,6.29,15.59,14.19,15.59,8.95,0,14.76-7.21,14.76-15.59,0-9.53-5.33-15.74-14.76-15.74-7.9,0-14.19,5.78-14.19,15.74Z"/>
      <path class="st4" d="M306.95,302.99c3.91-4.77,10.67-7.65,19.71-7.65,20.76,0,34.57,15.45,34.57,37.25s-11.62,35.67-32.57,36.96c-7.9.44-17.43-2.02-23.43-8.95l-1.14,7.66h-23.62v-101.08h26.48v35.81ZM306.38,333.31c0,7.51,5.33,14.88,14.29,14.88,7.9,0,14.19-5.64,14.19-15.6s-6.29-15.74-14.19-15.74c-9.43,0-14.29,7.8-14.29,16.47Z"/>
      <path class="st4" d="M399.62,298.08h-26.57v70.18h26.57v-70.18Z"/>
      <path class="st4" d="M185.43,259.1v19.15c-4.57,1.71-9.43,2.61-14.38,2.63-9.52,0-16.86-2.7-21.81-8.1-4.95-5.41-7.43-13.52-7.43-23.11v-22.93h-16.19v-18.59h16.19v-16.08l25.24-8.1v24.17h17.05v18.59h-17.05v22.93c0,3.35.95,6.5,2.95,8.23,2,1.72,4.57,2.58,7.52,2.58,1.62,0,5.14-.81,7.9-1.37Z"/>
      <path class="st4" d="M264.86,208.14v71.01h-24.67v-9.5c-4.57,7.1-11.24,10.64-20.19,10.64s-15.71-2.51-20.1-7.54c-4.48-5.04-6.67-12.72-6.67-23.07v-41.53h25.24v42.22c0,6.98,3.05,10.48,9.05,10.49,3.52,0,6.38-1.26,8.57-3.78,2.19-2.51,3.24-5.87,3.33-10.06v-38.85l25.43-.02Z"/>
    </g>
  </g>
  <g id="Capa_3" class="st10">
    <g class="st10">
      <path class="st7" d="M390.19,130.61c11.1,0,20.1-9,20.1-20.1s-9-20.1-20.1-20.1-20.09,9-20.09,20.1,8.99,20.1,20.09,20.1Z"/>
      <path class="st9" d="M399.05,421.43v28.57H101.04v-28.57h298.01ZM430.96,388.68v-130.41c0-8.37-3.11-16.33-8.66-22.37l-1.13-1.18-149.01-147.02c-11.96-11.8-30.74-12.17-43.13-1.1l-1.17,1.1L78.84,234.72c-6.25,6.16-9.79,14.63-9.79,23.55v130.41c0,18.41,14.62,32.74,32,32.74v28.57l-3.12-.09c-31.02-1.59-55.81-26.75-57.37-58.08l-.08-3.15v-130.41c0-16.51,6.57-32.31,18.31-43.9L207.77,67.36c23.48-23.15,60.98-23.15,84.46,0l148.99,147.01c11.73,11.58,18.31,27.38,18.31,43.9v130.41l-.08,3.16c-1.62,32.45-28.02,58.15-60.4,58.15v-28.57c17.29,0,31.91-14.23,31.91-32.74Z"/>
    </g>
    <g class="st10">
      <path class="st7" d="M390.19,130.61c11.1,0,20.1-9,20.1-20.1s-9-20.1-20.1-20.1-20.09,9-20.09,20.1,8.99,20.1,20.09,20.1Z"/>
      <path class="st4" d="M399.05,421.43v28.57H101.04v-28.57h298.01ZM430.96,388.68v-130.41c0-8.37-3.11-16.33-8.66-22.37l-1.13-1.18-149.01-147.02c-11.96-11.8-30.74-12.17-43.13-1.1l-1.17,1.1L78.84,234.72c-6.25,6.16-9.79,14.63-9.79,23.55v130.41c0,18.41,14.62,32.74,32,32.74v28.57l-3.12-.09c-31.02-1.59-55.81-26.75-57.37-58.08l-.08-3.15v-130.41c0-16.51,6.57-32.31,18.31-43.9L207.77,67.36c23.48-23.15,60.98-23.15,84.46,0l148.99,147.01c11.73,11.58,18.31,27.38,18.31,43.9v130.41l-.08,3.16c-1.62,32.45-28.02,58.15-60.4,58.15v-28.57c17.29,0,31.91-14.23,31.91-32.74Z"/>
    </g>
    <g class="st10">
      <path class="st6" d="M390.19,130.61c11.1,0,20.1-9,20.1-20.1s-9-20.1-20.1-20.1-20.09,9-20.09,20.1,8.99,20.1,20.09,20.1Z"/>
      <path class="st6" d="M399.05,421.43v28.57H101.04v-28.57h298.01ZM430.96,388.68v-130.41c0-8.37-3.11-16.33-8.66-22.37l-1.13-1.18-149.01-147.02c-11.96-11.8-30.74-12.17-43.13-1.1l-1.17,1.1L78.84,234.72c-6.25,6.16-9.79,14.63-9.79,23.55v130.41c0,18.41,14.62,32.74,32,32.74v28.57l-3.12-.09c-31.02-1.59-55.81-26.75-57.37-58.08l-.08-3.15v-130.41c0-16.51,6.57-32.31,18.31-43.9L207.77,67.36c23.48-23.15,60.98-23.15,84.46,0l148.99,147.01c11.73,11.58,18.31,27.38,18.31,43.9v130.41l-.08,3.16c-1.62,32.45-28.02,58.15-60.4,58.15v-28.57c17.29,0,31.91-14.23,31.91-32.74Z"/>
    </g>
    <g class="st10">
      <path class="st4" d="M390.19,130.61c11.1,0,20.1-9,20.1-20.1s-9-20.1-20.1-20.1-20.09,9-20.09,20.1,8.99,20.1,20.09,20.1Z"/>
      <path class="st4" d="M399.05,421.43v28.57H101.04v-28.57h298.01ZM430.96,388.68v-130.41c0-8.37-3.11-16.33-8.66-22.37l-1.13-1.18-149.01-147.02c-11.96-11.8-30.74-12.17-43.13-1.1l-1.17,1.1L78.84,234.72c-6.25,6.16-9.79,14.63-9.79,23.55v130.41c0,18.41,14.62,32.74,32,32.74v28.57l-3.12-.09c-31.02-1.59-55.81-26.75-57.37-58.08l-.08-3.15v-130.41c0-16.51,6.57-32.31,18.31-43.9L207.77,67.36c23.48-23.15,60.98-23.15,84.46,0l148.99,147.01c11.73,11.58,18.31,27.38,18.31,43.9v130.41l-.08,3.16c-1.62,32.45-28.02,58.15-60.4,58.15v-28.57c17.29,0,31.91-14.23,31.91-32.74Z"/>
    </g>
    <g class="st10">
      <path class="st8" d="M390.19,130.61c11.1,0,20.1-9,20.1-20.1s-9-20.1-20.1-20.1-20.09,9-20.09,20.1,8.99,20.1,20.09,20.1Z"/>
      <path class="st8" d="M399.05,421.43v28.57H101.04v-28.57h298.01ZM430.96,388.68v-130.41c0-8.37-3.11-16.33-8.66-22.37l-1.13-1.18-149.01-147.02c-11.96-11.8-30.74-12.17-43.13-1.1l-1.17,1.1L78.84,234.72c-6.25,6.16-9.79,14.63-9.79,23.55v130.41c0,18.41,14.62,32.74,32,32.74v28.57l-3.12-.09c-31.02-1.59-55.81-26.75-57.37-58.08l-.08-3.15v-130.41c0-16.51,6.57-32.31,18.31-43.9L207.77,67.36c23.48-23.15,60.98-23.15,84.46,0l148.99,147.01c11.73,11.58,18.31,27.38,18.31,43.9v130.41l-.08,3.16c-1.62,32.45-28.02,58.15-60.4,58.15v-28.57c17.29,0,31.91-14.23,31.91-32.74Z"/>
    </g>
  </g>
  <g id="Capa_4">
    <g>
      <path class="st7" d="M390.19,130.62c11.1,0,20.1-9,20.1-20.1s-9-20.1-20.1-20.1-20.09,9-20.09,20.1,8.99,20.1,20.09,20.1Z"/>
      <path class="st9" d="M459.52,388.68v-130.39c0-16.51-6.56-32.32-18.3-43.9l-149-147.01c-23.47-23.16-60.97-23.16-84.44,0L58.78,214.38c-11.74,11.58-18.3,27.39-18.3,43.9v130.39c0,33.84,27.06,61.32,60.57,61.32h298c33.42,0,60.48-27.39,60.48-61.32Z"/>
    </g>
    <g class="st10">
      <path class="st7" d="M390.19,130.62c11.1,0,20.1-9,20.1-20.1s-9-20.1-20.1-20.1-20.09,9-20.09,20.1,8.99,20.1,20.09,20.1Z"/>
      <path class="st4" d="M459.52,388.68v-130.39c0-16.51-6.56-32.32-18.3-43.9l-149-147.01c-23.47-23.16-60.97-23.16-84.44,0L58.78,214.38c-11.74,11.58-18.3,27.39-18.3,43.9v130.39c0,33.84,27.06,61.32,60.57,61.32h298c33.42,0,60.48-27.39,60.48-61.32Z"/>
    </g>
    <g class="st10">
      <path class="st6" d="M390.19,130.62c11.1,0,20.1-9,20.1-20.1s-9-20.1-20.1-20.1-20.09,9-20.09,20.1,8.99,20.1,20.09,20.1Z"/>
      <path class="st6" d="M459.52,388.68v-130.39c0-16.51-6.56-32.32-18.3-43.9l-149-147.01c-23.47-23.16-60.97-23.16-84.44,0L58.78,214.38c-11.74,11.58-18.3,27.39-18.3,43.9v130.39c0,33.84,27.06,61.32,60.57,61.32h298c33.42,0,60.48-27.39,60.48-61.32Z"/>
    </g>
    <g class="st10">
      <path class="st4" d="M390.19,130.62c11.1,0,20.1-9,20.1-20.1s-9-20.1-20.1-20.1-20.09,9-20.09,20.1,8.99,20.1,20.09,20.1Z"/>
      <path class="st4" d="M459.52,388.68v-130.39c0-16.51-6.56-32.32-18.3-43.9l-149-147.01c-23.47-23.16-60.97-23.16-84.44,0L58.78,214.38c-11.74,11.58-18.3,27.39-18.3,43.9v130.39c0,33.84,27.06,61.32,60.57,61.32h298c33.42,0,60.48-27.39,60.48-61.32Z"/>
    </g>
    <g class="st10">
      <path class="st8" d="M390.19,130.62c11.1,0,20.1-9,20.1-20.1s-9-20.1-20.1-20.1-20.09,9-20.09,20.1,8.99,20.1,20.09,20.1Z"/>
      <path class="st8" d="M459.52,388.68v-130.39c0-16.51-6.56-32.32-18.3-43.9l-149-147.01c-23.47-23.16-60.97-23.16-84.44,0L58.78,214.38c-11.74,11.58-18.3,27.39-18.3,43.9v130.39c0,33.84,27.06,61.32,60.57,61.32h298c33.42,0,60.48-27.39,60.48-61.32Z"/>
    </g>
  </g>
</svg>